<svg xmlns="http://www.w3.org/2000/svg" viewBox="0 0 64 64" width="64" height="64">
  <defs>
    <linearGradient id="g" x1="0" y1="0" x2="1" y2="1">
      <stop offset="0%" stop-color="#6366F1"/>
      <stop offset="100%" stop-color="#22D3EE"/>
    </linearGradient>
  </defs>
  <rect width="64" height="64" rx="12" fill="#0B1020"/>
  <g fill="none" stroke="url(#g)" stroke-width="3" stroke-linecap="round">
    <path d="M8 32c6-10 12-10 18 0s12 10 18 0 12-10 18 0"/>
    <path d="M8 24c6-8 12-8 18 0s12 8 18 0 12-8 18 0" opacity=".6"/>
    <path d="M8 40c6-12 12-12 18 0s12 12 18 0 12-12 18 0" opacity=".6"/>
  </g>
  <circle cx="32" cy="32" r="5" fill="#A78BFA"/>
</svg>



